<?xml version="1.0" encoding="utf-8"?>
<!-- Generator: Adobe Illustrator 19.2.0, SVG Export Plug-In . SVG Version: 6.00 Build 0)  -->
<svg version="1.1" id="Layer_1" xmlns="http://www.w3.org/2000/svg" xmlns:xlink="http://www.w3.org/1999/xlink" x="0px" y="0px"
	 viewBox="0 0 215.848 50" style="enable-background:new 0 0 215.848 50;" xml:space="preserve">
<style type="text/css">
	.st0{fill:#FFFFFF;}
</style>
<g>
	<g>
		<path class="st0" d="M25,0C11.192,0,0,11.193,0,25c0,13.807,11.192,25,25,25c13.808,0,25-11.193,25-25C50,11.193,38.808,0,25,0z
			 M18.088,42.583c0.276-1.78,0.54-3.415,0.787-4.925c-5.506-2.76-8.995-8.316-8.105-14.737c1.215-8.721,7.929-13.193,16.374-12.432
			c0.64-0.906,1.343-1.776,2.143-2.618c1.424-1.593,3.543-1.643,2.59,0.245c-1.92,3.634-2.68,6.378-4.329,10.784
			c-1.644,4.686-4.185,11.565-7.569,23.642C19.734,43.649,18,43.473,18.088,42.583z M39.244,26.568
			c-1.098,8.327-8.881,13.052-16.617,12.236c0.562-1.899,0.828-2.708,1.478-4.239c0.491-0.883,2.33-1.244,3.757-1.851
			c2.9-1.042,5.127-3.631,5.547-6.897c0.296-2.316-0.38-4.535-1.706-6.25c-0.927-1.177-1.801-1.89-1.503-2.995
			c0.439-1.491,0.776-2.598,1.595-4.472C36.879,14.832,40.048,20.503,39.244,26.568z"/>
		<path class="st0" d="M16.61,23.668c-0.287,2.228,0.32,4.354,1.536,6.031c0.81,1.083,1.431,1.714,1.735,2.21
			c1.002-5.425,1.725-8.231,2.688-11.38c0.432-1.315,1.147-3.16,1.665-4.416c-0.618,0.207-1.494,0.437-2.21,0.717
			C19.189,17.893,17.022,20.454,16.61,23.668z"/>
	</g>
	<path class="st0" d="M215.848,25.849c-0.123-5.924-3.648-10.091-9.61-10.091c-5.571,0-9.905,4.156-9.905,9.684
		c0,5.571,4.112,9.683,10.479,9.683c3.448,0,5.577-0.948,7.269-2.486c0.47-0.516,0.23-0.847-0.083-1.188
		c-0.202-0.202-1.188-1.271-1.428-1.511c-0.341-0.368-0.728-0.433-1.179,0c-1.082,0.854-2.522,1.427-4.623,1.427
		c-3.157,0-5.059-1.483-5.742-3.847c-0.054-0.186,0.036-0.575,0.346-0.575c2.378,0,12.734,0,13.56,0
		C215.656,26.945,215.841,26.549,215.848,25.849z M210.841,23.85h-9.474c0,0-0.571,0.089-0.318-0.669
		c0.705-2.371,2.597-3.709,5.233-3.709c2.843,0,4.38,1.567,4.92,3.775C211.323,23.85,210.841,23.85,210.841,23.85z"/>
	<path class="st0" d="M195.208,31.271c-0.239-0.224-1.569-1.316-1.746-1.493c-0.343-0.269-0.791-0.462-1.253,0.045
		c-1.045,0.896-2.033,1.439-3.959,1.439c-3.316,0-5.306-2.432-5.306-5.748c0-3.317,1.99-5.749,5.306-5.749
		c1.636,0,2.776,0.519,3.735,1.477c0.552,0.462,0.896,0.477,1.298,0.119c0.22-0.22,1.683-1.295,1.865-1.477
		c0.373-0.388,0.462-0.582,0.06-1.179c-1.657-1.686-3.692-2.876-6.958-2.876c-5.66,0-9.905,4.156-9.905,9.684
		c0,5.571,4.245,9.683,9.905,9.683c3.353,0,5.167-1.048,7.003-2.704C195.909,31.838,195.491,31.51,195.208,31.271z"/>
	<path class="st0" d="M169.775,15.757c-2.618-0.054-4.465,0.005-6.278,1.639l-0.001-0.359c0-0.58-0.29-0.882-0.999-0.882
		c-0.253,0-3.378,0-3.378,0s0.001,16.787,0.001,17.34c0,0.866,0.22,1.231,1.141,1.231h2.192c0.94,0,1.132-0.329,1.132-1.287
		c0-0.496,0-8.795,0-8.795c0-3.007,1.901-4.775,4.82-4.775c2.609,0,3.846,1.548,3.846,4.201c0,0,0,6.609,0,9.37
		c0,1.161,0.289,1.29,1.45,1.29c0.38,0,1.016,0,1.607-0.001c1.162,0,1.409-0.153,1.409-1.316c0-0.946,0-9.696,0-9.696
		C176.718,18.676,173.887,15.843,169.775,15.757z"/>
	<path class="st0" d="M153.026,17.393c0,3.298,0,8.933,0,8.933c0,3.184-1.194,4.908-4.157,4.908c-2.962,0-4.157-1.724-4.157-4.908
		c0,0,0-8.431,0-8.946c0-0.94-0.261-1.224-1.156-1.224c-0.59,0-1.503,0-2.074,0c-0.985,0-1.235,0.313-1.235,1.238
		c0,0.424,0,9.065,0,9.065c0,5.439,3.007,8.711,8.446,8.711c5.527,0,8.799-3.272,8.799-8.711V16.155l-3.072,0.011
		C153.361,16.167,153.026,16.409,153.026,17.393z"/>
	<path class="st0" d="M108.518,15.703c-2.2,0-4.23,0.723-5.868,1.944c0.004-5.579,0.007-10.478,0.007-10.652
		c0-0.85-0.2-1.184-1.14-1.184c-0.302,0-1.61-0.009-2.218-0.009c-0.88,0-1.041,0.235-1.041,1.131c0,0.497,0,27.794,0,27.794
		s3.627,0,3.7,0c0.497,0,0.679-0.298,0.679-0.718c0-0.027,0-0.242,0-0.605c1.639,1.226,3.675,1.952,5.879,1.952
		c5.427,0,9.826-4.4,9.826-9.827C118.344,20.102,113.945,15.703,108.518,15.703z M108.469,31.327c-3.202,0-5.798-2.596-5.798-5.798
		c0-3.203,2.596-5.798,5.798-5.798c3.202,0,5.798,2.595,5.798,5.798C114.267,28.731,111.671,31.327,108.469,31.327z"/>
	<path class="st0" d="M89.689,15.757c-2.618-0.054-4.465,0.005-6.279,1.639l-0.001-0.359c0-0.58-0.29-0.882-0.999-0.882
		c-0.253,0-3.377,0-3.377,0s0,16.787,0,17.34c0,0.866,0.22,1.231,1.142,1.231h2.193c0.94,0,1.132-0.329,1.132-1.287
		c0-0.496,0-8.795,0-8.795c0-3.007,1.901-4.775,4.82-4.775c2.609,0,3.847,1.548,3.847,4.201c0,0,0,6.609,0,9.37
		c0,1.161,0.289,1.29,1.45,1.29c0.857,0,3.016-0.003,3.016-0.003V23.717C96.631,18.676,93.8,15.843,89.689,15.757z"/>
	<path class="st0" d="M72.939,17.373c0,0.663,0,8.953,0,8.953c-0.191,3.184-1.194,4.908-4.156,4.908
		c-2.963,0-3.97-1.724-4.157-4.908c0,0,0-8.564,0-8.933c0-0.795-0.154-1.238-0.969-1.238h-2.446c-0.815,0-1.039,0.361-1.039,1.197
		c0,0.35-0.012,9.106-0.012,9.106c0,5.439,3.007,8.711,8.446,8.711c5.527,0,8.799-3.272,8.799-8.711V16.155c0,0-2.969,0-3.436,0
		C73.236,16.155,72.939,16.517,72.939,17.373z"/>
	<g>
		<path class="st0" d="M136.387,32.49c-1.929,1.786-4.287,2.679-7.109,2.679c-2.822,0-5.18-0.893-7.109-2.679
			c-1.929-1.822-2.894-4.108-2.894-6.859c0-2.751,0.965-5.037,2.894-6.823c1.929-1.822,4.287-2.715,7.109-2.715
			c2.822,0,5.18,0.893,7.109,2.715c1.965,1.822,2.929,4.073,2.929,6.823C139.316,28.382,138.352,30.668,136.387,32.49z
			 M125.42,29.739c1.036,1.036,2.322,1.572,3.858,1.572c1.536,0,2.822-0.536,3.858-1.572c1.036-1.072,1.572-2.429,1.572-4.108
			c0-1.643-0.536-3.001-1.608-4.072c-1.036-1.072-2.322-1.608-3.822-1.608c-1.5,0-2.787,0.536-3.822,1.608
			c-1.036,1.072-1.572,2.429-1.572,4.072C123.884,27.31,124.384,28.668,125.42,29.739z"/>
	</g>
</g>
</svg>
